<?xml version="1.0" standalone="no"?><!DOCTYPE svg PUBLIC "-//W3C//DTD SVG 1.1//EN" "http://www.w3.org/Graphics/SVG/1.1/DTD/svg11.dtd"><svg class="icon" width="200px" height="200.00px" viewBox="0 0 1024 1024" version="1.1" xmlns="http://www.w3.org/2000/svg"><path fill="#ffffff" d="M832.576 132.672l-92.032 0L740.544 71.36l-82.624 0C631.424 34.816 582.528 9.984 525.888 9.984c-56.64 0-105.536 24.832-132.096 61.312L311.232 71.296l0 61.312L219.2 132.608c-67.776 0-122.688 54.912-122.688 122.688l0 613.376c0 67.776 54.912 122.688 122.688 122.688l613.376 0c67.776 0 122.688-54.912 122.688-122.688L955.264 255.36C955.264 187.584 900.352 132.672 832.576 132.672zM362.816 129.536l72.512 0c0-36.8 40.576-66.688 90.624-66.688s90.624 29.824 90.624 66.688l72.512 0 0 133.312L362.816 262.848 362.816 129.536zM730.624 797.952 307.52 797.952c-14.016 0-25.344-11.328-25.344-25.344 0-14.016 11.328-25.344 25.344-25.344l423.104 0c14.016 0 25.344 11.328 25.344 25.344C755.904 786.624 744.576 797.952 730.624 797.952zM730.624 647.36 307.52 647.36c-14.016 0-25.344-11.328-25.344-25.344 0-14.016 11.328-25.344 25.344-25.344l423.104 0c14.016 0 25.344 11.328 25.344 25.344C755.904 636.032 744.576 647.36 730.624 647.36zM730.624 498.112 307.52 498.112c-14.016 0-25.344-11.328-25.344-25.344 0-14.016 11.328-25.344 25.344-25.344l423.104 0c14.016 0 25.344 11.328 25.344 25.344C755.904 486.72 744.576 498.112 730.624 498.112z"  /></svg>