<?xml version="1.0" standalone="no"?><!DOCTYPE svg PUBLIC "-//W3C//DTD SVG 1.1//EN" "http://www.w3.org/Graphics/SVG/1.1/DTD/svg11.dtd"><svg class="icon" width="200px" height="200.00px" viewBox="0 0 1024 1024" version="1.1" xmlns="http://www.w3.org/2000/svg"><path fill="#ffffff" d="M709.44 221.248H195.072c-36.288 0-66.048 29.696-66.048 66.048v561.152c0 36.288 29.696 66.048 66.048 66.048h514.432c36.288 0 66.048-29.696 66.048-66.048V287.296a66.368 66.368 0 0 0-66.112-66.048zM274.56 780.736a40.256 40.256 0 1 1 0-80.512 40.256 40.256 0 0 1 0 80.512z m0-172.608a40.256 40.256 0 1 1 0-80.512 40.256 40.256 0 0 1 0 80.512z m0-172.672a40.256 40.256 0 1 1 0-80.512 40.256 40.256 0 0 1 0 80.512z m395.712 338.048H404.8a33.024 33.024 0 1 1 0-66.048h265.472a33.024 33.024 0 1 1 0 66.048z m0-172.672H404.8a33.024 33.024 0 1 1 0-66.048h265.472a33.024 33.024 0 1 1 0 66.048z m0-172.608H404.8a33.024 33.024 0 1 1 0-66.048h265.472a33.024 33.024 0 1 1 0 66.048z"  /><path fill="#ffffff" d="M861.952 608.832a33.024 33.024 0 0 1-33.024-33.024V274.624c0-54.592-44.416-99.008-99.008-99.008h-203.52a33.024 33.024 0 0 1-0.064-66.048h203.52a165.312 165.312 0 0 1 165.056 165.056v301.248c0 18.176-14.72 32.96-32.96 32.96z"  /></svg>