<?xml version="1.0" standalone="no"?><!DOCTYPE svg PUBLIC "-//W3C//DTD SVG 1.1//EN" "http://www.w3.org/Graphics/SVG/1.1/DTD/svg11.dtd"><svg class="icon" width="200px" height="185.84px" viewBox="0 0 1102 1024" version="1.1" xmlns="http://www.w3.org/2000/svg"><path fill="#ffffff" d="M78.769231 1024a78.769231 78.769231 0 0 1-78.769231-78.769231v-78.769231a78.769231 78.769231 0 0 1 78.769231-78.76923h945.230769a78.769231 78.769231 0 0 1 78.769231 78.76923v78.769231a78.769231 78.769231 0 0 1-78.769231 78.769231z m393.846154-393.846154a78.769231 78.769231 0 0 1-78.769231-78.769231V472.615385a78.769231 78.769231 0 0 1 78.769231-78.769231h551.384615a78.769231 78.769231 0 0 1 78.769231 78.769231v78.76923a78.769231 78.769231 0 0 1-78.769231 78.769231zM78.769231 630.153846a78.769231 78.769231 0 0 1-78.769231-78.769231V472.615385a78.769231 78.769231 0 0 1 78.769231-78.769231h157.538461a78.769231 78.769231 0 0 1 78.769231 78.769231v78.76923a78.769231 78.769231 0 0 1-78.769231 78.769231z m787.692307-393.846154a78.769231 78.769231 0 0 1-78.76923-78.76923V78.769231a78.769231 78.769231 0 0 1 78.76923-78.769231h157.538462a78.769231 78.769231 0 0 1 78.769231 78.769231v78.769231a78.769231 78.769231 0 0 1-78.769231 78.76923zM78.769231 236.307692a78.769231 78.769231 0 0 1-78.769231-78.76923V78.769231a78.769231 78.769231 0 0 1 78.769231-78.769231h551.384615a78.769231 78.769231 0 0 1 78.769231 78.769231v78.769231a78.769231 78.769231 0 0 1-78.769231 78.76923z"  /></svg>